<svg width="25" height="25" viewBox="0 0 25 25" fill="none" xmlns="http://www.w3.org/2000/svg">
<path fill-rule="evenodd" clip-rule="evenodd" d="M7.33706 0.153409C5.30221 0.245222 3.53851 0.742749 2.11436 2.16089C0.685234 3.58647 0.193934 5.35698 0.101893 7.37066C0.044678 8.62751 -0.289904 18.1227 0.680259 20.6128C1.3345 22.2928 2.62307 23.5844 4.31837 24.2407C5.10942 24.5484 6.01242 24.7568 7.33706 24.8176C18.4131 25.3189 22.5189 25.0459 24.2502 20.6128C24.5574 19.8237 24.7689 18.9217 24.8273 17.6004C25.3336 6.49596 24.7453 4.08897 22.8149 2.16089C21.2838 0.633566 19.4828 -0.406155 7.33706 0.153409ZM7.43885 22.5844C6.22614 22.5298 5.56817 22.3275 5.12911 22.1576C4.02462 21.7283 3.19501 20.9019 2.76838 19.8039C2.02957 17.9118 2.2746 8.92529 2.34052 7.47117C2.40519 6.04683 2.69376 4.74532 3.69874 3.74034C4.94254 2.49962 6.54953 1.89167 17.4912 2.38547C18.9191 2.44999 20.2238 2.73784 21.2313 3.74034C22.4751 4.98105 23.092 6.60019 22.5895 17.4999C22.5348 18.7096 22.3321 19.3659 22.1617 19.8039C21.036 22.6886 18.4465 23.0893 7.43885 22.5844ZM17.6123 5.86195C17.6123 6.68331 18.2802 7.35082 19.1049 7.35082C19.9295 7.35082 20.5987 6.68331 20.5987 5.86195C20.5987 5.0406 19.9295 4.37309 19.1049 4.37309C18.2802 4.37309 17.6123 5.0406 17.6123 5.86195ZM6.07849 12.4849C6.07849 16.0036 8.93798 18.856 12.4654 18.856C15.9928 18.856 18.8523 16.0036 18.8523 12.4849C18.8523 8.96624 15.9928 6.11507 12.4654 6.11507C8.93798 6.11507 6.07849 8.96624 6.07849 12.4849ZM8.3197 12.4849C8.3197 10.202 10.1754 8.34961 12.4653 8.34961C14.7551 8.34961 16.6109 10.202 16.6109 12.4849C16.6109 14.7691 14.7551 16.6215 12.4653 16.6215C10.1754 16.6215 8.3197 14.7691 8.3197 12.4849Z" fill="white"/>
</svg>
