<svg width="29" height="26" viewBox="0 0 29 26" fill="none" xmlns="http://www.w3.org/2000/svg">
<path d="M28.5522 0.689953C28.1979 0.244983 27.6674 0 27.058 0C26.7268 0 26.3759 0.0715861 26.0153 0.213167L1.46739 9.8382C0.164657 10.3488 -0.0107958 11.1152 0.000488019 11.5265C0.0117719 11.9378 0.229262 12.6928 1.5581 13.1271C1.56607 13.1296 1.57403 13.1321 1.582 13.1343L6.67389 14.6311L9.42759 22.7191C9.80305 23.8218 10.6458 24.5068 11.6273 24.5068C12.2461 24.5068 12.8548 24.2404 13.3876 23.7368L16.5371 20.7581L21.1053 24.5363C21.1057 24.5367 21.1064 24.537 21.1068 24.5374L21.1502 24.5733C21.1542 24.5765 21.1584 24.5799 21.1623 24.5831C21.6701 24.9876 22.2244 25.2012 22.7658 25.2015H22.766C23.8238 25.2015 24.6661 24.3972 24.9115 23.1528L28.9336 2.75322C29.0951 1.93441 28.9597 1.20174 28.5522 0.689953ZM8.37731 14.3468L18.2011 9.19188L12.0842 15.868C11.9839 15.9773 11.9129 16.1112 11.878 16.2569L10.6985 21.1642L8.37731 14.3468ZM12.2364 22.4528C12.1957 22.4912 12.1547 22.5255 12.1138 22.5571L13.2081 18.0047L15.1987 19.6512L12.2364 22.4528ZM27.2682 2.40666L23.2461 22.8064C23.2074 23.0016 23.0837 23.4559 22.7658 23.4559C22.6087 23.4559 22.4113 23.368 22.2093 23.2082L17.0329 18.9271C17.0322 18.9264 17.0314 18.9258 17.0305 18.9253L13.9504 16.3778L22.7963 6.72318C23.0795 6.41411 23.1052 5.94073 22.8571 5.60121C22.6089 5.26169 22.1591 5.15488 21.7911 5.34805L7.24206 12.9825L2.08092 11.4658L26.6213 1.84374C26.8286 1.76238 26.9733 1.74534 27.058 1.74534C27.11 1.74534 27.2025 1.7517 27.2368 1.79511C27.282 1.85169 27.3395 2.04463 27.2682 2.40666Z" fill="white"/>
</svg>
